<svg xmlns="http://www.w3.org/2000/svg" xmlns:xlink="http://www.w3.org/1999/xlink" width="150" zoomAndPan="magnify" viewBox="0 0 112.5 37.5" height="50" preserveAspectRatio="xMidYMid meet" version="1.0"><defs><g/><clipPath id="67b36aa468"><path d="M 90 8 L 96 8 L 96 17 L 90 17 Z M 90 8 " clip-rule="nonzero"/></clipPath><clipPath id="44a9235664"><path d="M 88.609375 20.984375 L 93.796875 2.453125 L 111.617188 7.441406 L 106.429688 25.972656 Z M 88.609375 20.984375 " clip-rule="nonzero"/></clipPath><clipPath id="2aa06f54c3"><path d="M 88.609375 20.984375 L 93.796875 2.453125 L 111.617188 7.441406 L 106.429688 25.972656 Z M 88.609375 20.984375 " clip-rule="nonzero"/></clipPath><clipPath id="87df845a7c"><path d="M 95 4 L 106 4 L 106 19 L 95 19 Z M 95 4 " clip-rule="nonzero"/></clipPath><clipPath id="cabe8c2523"><path d="M 88.609375 20.984375 L 93.796875 2.453125 L 111.617188 7.441406 L 106.429688 25.972656 Z M 88.609375 20.984375 " clip-rule="nonzero"/></clipPath><clipPath id="f6c890328e"><path d="M 88.609375 20.984375 L 93.796875 2.453125 L 111.617188 7.441406 L 106.429688 25.972656 Z M 88.609375 20.984375 " clip-rule="nonzero"/></clipPath><clipPath id="9d9d5a3dc4"><path d="M 93 19 L 100 19 L 100 24 L 93 24 Z M 93 19 " clip-rule="nonzero"/></clipPath><clipPath id="d9e81c1004"><path d="M 88.609375 20.984375 L 93.796875 2.453125 L 111.617188 7.441406 L 106.429688 25.972656 Z M 88.609375 20.984375 " clip-rule="nonzero"/></clipPath><clipPath id="52c4bbcc53"><path d="M 88.609375 20.984375 L 93.796875 2.453125 L 111.617188 7.441406 L 106.429688 25.972656 Z M 88.609375 20.984375 " clip-rule="nonzero"/></clipPath><clipPath id="b85044f01a"><path d="M 104 5 L 107 5 L 107 9 L 104 9 Z M 104 5 " clip-rule="nonzero"/></clipPath><clipPath id="565e33dc14"><path d="M 88.609375 20.984375 L 93.796875 2.453125 L 111.617188 7.441406 L 106.429688 25.972656 Z M 88.609375 20.984375 " clip-rule="nonzero"/></clipPath><clipPath id="38775f5283"><path d="M 88.609375 20.984375 L 93.796875 2.453125 L 111.617188 7.441406 L 106.429688 25.972656 Z M 88.609375 20.984375 " clip-rule="nonzero"/></clipPath><clipPath id="877cd18803"><path d="M 102 11 L 110 11 L 110 24 L 102 24 Z M 102 11 " clip-rule="nonzero"/></clipPath><clipPath id="e45577da71"><path d="M 88.609375 20.984375 L 93.796875 2.453125 L 111.617188 7.441406 L 106.429688 25.972656 Z M 88.609375 20.984375 " clip-rule="nonzero"/></clipPath><clipPath id="2198b44863"><path d="M 88.609375 20.984375 L 93.796875 2.453125 L 111.617188 7.441406 L 106.429688 25.972656 Z M 88.609375 20.984375 " clip-rule="nonzero"/></clipPath></defs><g clip-path="url(#67b36aa468)"><g clip-path="url(#44a9235664)"><g clip-path="url(#2aa06f54c3)"><path fill="#ffbd4a" d="M 92.21875 8.195312 C 92.230469 8.15625 92.296875 8.09375 92.371094 8.050781 C 92.464844 7.996094 92.53125 7.992188 92.601562 8.027344 C 92.65625 8.054688 92.824219 8.21875 92.980469 8.394531 C 93.132812 8.570312 93.683594 9.140625 94.199219 9.664062 C 94.832031 10.304688 95.140625 10.652344 95.15625 10.726562 C 95.167969 10.808594 95.148438 10.855469 95.078125 10.925781 C 95.011719 10.992188 94.941406 11.011719 94.847656 10.992188 C 94.742188 10.972656 94.558594 10.8125 94.019531 10.273438 C 93.640625 9.894531 93.128906 9.375 92.882812 9.117188 C 92.636719 8.859375 92.382812 8.5625 92.316406 8.457031 C 92.253906 8.351562 92.210938 8.230469 92.21875 8.195312 Z M 90.234375 16.246094 C 90.238281 16.222656 90.277344 16.167969 90.316406 16.121094 C 90.351562 16.078125 90.570312 15.992188 90.804688 15.9375 C 91.035156 15.878906 91.5625 15.730469 91.980469 15.605469 C 92.394531 15.480469 92.765625 15.386719 92.796875 15.394531 C 92.832031 15.40625 92.894531 15.453125 92.9375 15.503906 C 92.992188 15.566406 93 15.632812 92.972656 15.734375 C 92.9375 15.851562 92.898438 15.894531 92.769531 15.945312 C 92.679688 15.976562 92.332031 16.085938 91.996094 16.1875 C 91.660156 16.289062 91.191406 16.417969 90.953125 16.480469 C 90.710938 16.539062 90.484375 16.582031 90.441406 16.570312 C 90.402344 16.558594 90.335938 16.488281 90.296875 16.417969 C 90.253906 16.347656 90.226562 16.269531 90.234375 16.246094 Z M 90.234375 16.246094 " fill-opacity="1" fill-rule="nonzero"/></g></g></g><g clip-path="url(#87df845a7c)"><g clip-path="url(#cabe8c2523)"><g clip-path="url(#f6c890328e)"><path fill="#ffbd4a" d="M 95.480469 12.792969 C 95.558594 12.554688 95.714844 12.175781 95.828125 11.949219 C 95.941406 11.722656 96.160156 11.351562 96.320312 11.125 C 96.476562 10.898438 96.753906 10.53125 96.933594 10.3125 C 97.117188 10.09375 97.414062 9.785156 97.597656 9.625 C 97.777344 9.46875 98.035156 9.269531 98.167969 9.183594 C 98.296875 9.097656 98.578125 8.957031 98.785156 8.871094 C 98.996094 8.78125 99.304688 8.683594 99.472656 8.652344 C 99.644531 8.621094 99.9375 8.582031 100.125 8.570312 C 100.3125 8.554688 100.664062 8.558594 100.90625 8.574219 C 101.238281 8.597656 101.496094 8.648438 101.96875 8.777344 C 102.5 8.925781 102.644531 8.984375 102.953125 9.167969 C 103.15625 9.285156 103.457031 9.503906 103.625 9.65625 C 103.789062 9.804688 104.023438 10.050781 104.144531 10.199219 C 104.261719 10.34375 104.445312 10.621094 104.550781 10.808594 C 104.652344 11 104.792969 11.3125 104.863281 11.503906 C 104.929688 11.695312 105.015625 12.011719 105.054688 12.207031 C 105.09375 12.402344 105.136719 12.734375 105.152344 12.949219 C 105.167969 13.164062 105.160156 13.5625 105.140625 13.839844 C 105.109375 14.222656 105.058594 14.488281 104.929688 14.945312 C 104.824219 15.320312 104.695312 15.6875 104.582031 15.921875 C 104.484375 16.128906 104.3125 16.433594 104.203125 16.597656 C 104.09375 16.765625 103.863281 17.0625 103.691406 17.261719 C 103.515625 17.457031 103.21875 17.738281 103.03125 17.882812 C 102.84375 18.027344 102.515625 18.234375 102.300781 18.351562 C 102.089844 18.464844 101.769531 18.605469 101.59375 18.664062 C 101.417969 18.722656 101.105469 18.796875 100.898438 18.832031 C 100.691406 18.867188 100.359375 18.894531 100.164062 18.894531 C 99.90625 18.890625 99.640625 18.851562 99.199219 18.742188 C 98.855469 18.660156 98.472656 18.539062 98.316406 18.46875 C 98.160156 18.398438 97.882812 18.246094 97.691406 18.132812 C 97.503906 18.015625 97.171875 17.761719 96.957031 17.570312 C 96.738281 17.378906 96.441406 17.066406 96.296875 16.882812 C 96.152344 16.695312 95.960938 16.421875 95.867188 16.273438 C 95.777344 16.128906 95.632812 15.828125 95.546875 15.605469 C 95.460938 15.386719 95.363281 15.0625 95.328125 14.886719 C 95.296875 14.710938 95.265625 14.390625 95.265625 14.175781 C 95.261719 13.957031 95.277344 13.65625 95.300781 13.5 C 95.320312 13.347656 95.402344 13.027344 95.480469 12.792969 Z M 95.820312 14.273438 C 95.824219 14.410156 95.851562 14.628906 95.875 14.757812 C 95.898438 14.890625 95.96875 15.128906 96.027344 15.292969 C 96.085938 15.457031 96.21875 15.742188 96.324219 15.925781 C 96.429688 16.109375 96.621094 16.390625 96.75 16.550781 C 96.875 16.710938 97.140625 16.988281 97.339844 17.164062 C 97.535156 17.335938 97.84375 17.570312 98.019531 17.679688 C 98.199219 17.792969 98.507812 17.949219 98.707031 18.027344 C 98.925781 18.117188 99.230469 18.207031 99.472656 18.25 C 99.695312 18.292969 100.003906 18.332031 100.164062 18.335938 C 100.324219 18.339844 100.644531 18.304688 100.878906 18.265625 C 101.113281 18.222656 101.460938 18.121094 101.65625 18.042969 C 101.851562 17.964844 102.179688 17.789062 102.394531 17.648438 C 102.605469 17.507812 102.894531 17.277344 103.039062 17.140625 C 103.183594 17 103.410156 16.742188 103.542969 16.570312 C 103.675781 16.398438 103.878906 16.074219 103.996094 15.847656 C 104.164062 15.527344 104.25 15.296875 104.390625 14.796875 C 104.519531 14.335938 104.578125 14.050781 104.59375 13.800781 C 104.605469 13.605469 104.605469 13.285156 104.601562 13.085938 C 104.59375 12.886719 104.558594 12.574219 104.523438 12.394531 C 104.488281 12.210938 104.414062 11.929688 104.363281 11.765625 C 104.308594 11.605469 104.183594 11.320312 104.085938 11.136719 C 103.988281 10.953125 103.820312 10.691406 103.707031 10.554688 C 103.597656 10.417969 103.394531 10.203125 103.25 10.074219 C 103.109375 9.945312 102.867188 9.765625 102.714844 9.671875 C 102.5625 9.582031 102.28125 9.449219 102.089844 9.378906 C 101.894531 9.308594 101.550781 9.222656 101.296875 9.183594 C 101.046875 9.144531 100.675781 9.113281 100.464844 9.113281 C 100.253906 9.117188 99.914062 9.148438 99.707031 9.183594 C 99.5 9.21875 99.195312 9.304688 99.027344 9.375 C 98.859375 9.445312 98.640625 9.554688 98.542969 9.617188 C 98.445312 9.679688 98.265625 9.804688 98.148438 9.894531 C 98.03125 9.984375 97.832031 10.160156 97.710938 10.285156 C 97.585938 10.410156 97.367188 10.679688 97.214844 10.882812 C 97.066406 11.089844 96.878906 11.339844 96.796875 11.4375 C 96.714844 11.539062 96.582031 11.730469 96.5 11.871094 C 96.421875 12.007812 96.277344 12.300781 96.179688 12.519531 C 96.082031 12.738281 95.972656 13.027344 95.933594 13.164062 C 95.898438 13.304688 95.855469 13.554688 95.839844 13.722656 C 95.824219 13.886719 95.816406 14.136719 95.820312 14.273438 Z M 98.089844 4.652344 C 98.09375 4.632812 98.132812 4.578125 98.179688 4.53125 C 98.222656 4.480469 98.300781 4.4375 98.351562 4.4375 C 98.398438 4.4375 98.476562 4.460938 98.527344 4.488281 C 98.582031 4.523438 98.636719 4.652344 98.6875 4.863281 C 98.726562 5.039062 98.929688 5.757812 99.132812 6.453125 C 99.339844 7.152344 99.496094 7.765625 99.484375 7.816406 C 99.46875 7.867188 99.410156 7.9375 99.351562 7.96875 C 99.292969 8.003906 99.203125 8.019531 99.152344 8.003906 C 99.101562 7.988281 99.035156 7.945312 99.007812 7.90625 C 98.980469 7.867188 98.816406 7.363281 98.644531 6.789062 C 98.476562 6.210938 98.289062 5.5625 98.230469 5.351562 C 98.171875 5.136719 98.113281 4.898438 98.101562 4.824219 C 98.09375 4.746094 98.085938 4.667969 98.089844 4.652344 Z M 98.089844 4.652344 " fill-opacity="1" fill-rule="evenodd"/></g></g></g><g clip-path="url(#9d9d5a3dc4)"><g clip-path="url(#d9e81c1004)"><g clip-path="url(#52c4bbcc53)"><path fill="#ffbd4a" d="M 93.976562 21.59375 C 94.019531 21.515625 94.238281 21.183594 94.464844 20.851562 C 94.6875 20.523438 94.960938 20.136719 95.066406 19.992188 C 95.171875 19.847656 95.300781 19.707031 95.351562 19.679688 C 95.398438 19.648438 95.488281 19.636719 95.542969 19.65625 C 95.601562 19.671875 95.671875 19.730469 95.699219 19.78125 C 95.730469 19.832031 95.742188 19.914062 95.726562 19.964844 C 95.710938 20.015625 95.511719 20.324219 95.285156 20.644531 C 95.054688 20.96875 94.769531 21.386719 94.644531 21.574219 C 94.523438 21.761719 94.40625 21.949219 94.386719 21.992188 C 94.367188 22.035156 94.292969 22.085938 94.21875 22.101562 C 94.101562 22.132812 94.078125 22.125 93.996094 22.035156 C 93.945312 21.976562 93.902344 21.886719 93.902344 21.832031 C 93.902344 21.777344 93.9375 21.667969 93.976562 21.59375 Z M 98.863281 20.765625 C 98.882812 20.683594 98.9375 20.582031 98.988281 20.542969 C 99.050781 20.488281 99.117188 20.476562 99.222656 20.507812 C 99.328125 20.535156 99.375 20.578125 99.398438 20.65625 C 99.414062 20.71875 99.402344 20.898438 99.375 21.0625 C 99.34375 21.226562 99.234375 21.886719 98.957031 23.691406 L 98.847656 23.757812 C 98.789062 23.792969 98.691406 23.804688 98.628906 23.789062 C 98.566406 23.769531 98.488281 23.710938 98.457031 23.660156 C 98.417969 23.585938 98.429688 23.390625 98.53125 22.75 C 98.597656 22.304688 98.695312 21.707031 98.742188 21.425781 C 98.789062 21.140625 98.84375 20.84375 98.863281 20.765625 Z M 98.863281 20.765625 " fill-opacity="1" fill-rule="nonzero"/></g></g></g><g clip-path="url(#b85044f01a)"><g clip-path="url(#565e33dc14)"><g clip-path="url(#38775f5283)"><path fill="#ffbd4a" d="M 104.503906 8.34375 C 104.558594 8.21875 104.75 7.820312 104.9375 7.453125 C 105.121094 7.085938 105.375 6.601562 105.5 6.378906 C 105.644531 6.117188 105.757812 5.960938 105.8125 5.941406 C 105.863281 5.921875 105.945312 5.925781 106 5.945312 C 106.054688 5.96875 106.117188 6.042969 106.148438 6.113281 C 106.199219 6.238281 106.199219 6.242188 105.816406 6.960938 C 105.605469 7.355469 105.3125 7.929688 105.167969 8.234375 C 104.96875 8.648438 104.878906 8.792969 104.8125 8.816406 C 104.761719 8.835938 104.679688 8.835938 104.628906 8.820312 C 104.578125 8.804688 104.507812 8.742188 104.472656 8.683594 C 104.417969 8.582031 104.421875 8.539062 104.503906 8.34375 Z M 104.503906 8.34375 " fill-opacity="1" fill-rule="nonzero"/></g></g></g><g clip-path="url(#877cd18803)"><g clip-path="url(#e45577da71)"><g clip-path="url(#2198b44863)"><path fill="#ffbd4a" d="M 102.910156 20.839844 C 102.9375 20.742188 102.980469 20.6875 103.058594 20.664062 C 103.121094 20.644531 103.210938 20.640625 103.261719 20.652344 C 103.324219 20.671875 103.421875 20.804688 103.550781 21.0625 C 103.65625 21.273438 103.839844 21.660156 103.953125 21.925781 C 104.066406 22.1875 104.21875 22.570312 104.285156 22.773438 C 104.355469 22.980469 104.402344 23.183594 104.386719 23.230469 C 104.375 23.273438 104.34375 23.328125 104.320312 23.347656 C 104.296875 23.367188 104.230469 23.394531 104.171875 23.40625 C 104.113281 23.417969 104.027344 23.410156 103.984375 23.382812 C 103.945312 23.359375 103.828125 23.132812 103.734375 22.878906 C 103.636719 22.621094 103.433594 22.136719 103.28125 21.800781 C 103.128906 21.460938 102.972656 21.140625 102.9375 21.082031 C 102.894531 21.015625 102.882812 20.929688 102.910156 20.839844 Z M 106.300781 12.355469 C 106.324219 12.3125 106.371094 12.261719 106.40625 12.242188 C 106.4375 12.222656 107.054688 12.011719 107.773438 11.769531 C 108.496094 11.523438 109.152344 11.324219 109.230469 11.320312 C 109.332031 11.316406 109.402344 11.335938 109.449219 11.378906 C 109.488281 11.414062 109.53125 11.484375 109.539062 11.539062 C 109.550781 11.601562 109.535156 11.664062 109.488281 11.726562 C 109.441406 11.785156 109.042969 11.941406 108.296875 12.1875 C 107.679688 12.394531 107.039062 12.609375 106.875 12.664062 C 106.710938 12.722656 106.53125 12.753906 106.472656 12.738281 C 106.417969 12.722656 106.347656 12.675781 106.316406 12.636719 C 106.289062 12.597656 106.261719 12.535156 106.261719 12.5 C 106.257812 12.460938 106.277344 12.394531 106.300781 12.351562 Z M 105.921875 17.429688 C 105.933594 17.386719 105.972656 17.328125 106.015625 17.292969 C 106.054688 17.261719 106.167969 17.238281 106.265625 17.246094 C 106.367188 17.25 106.617188 17.324219 106.867188 17.414062 C 107.101562 17.503906 107.421875 17.644531 107.585938 17.726562 C 107.746094 17.808594 107.988281 17.949219 108.121094 18.042969 C 108.257812 18.132812 108.382812 18.242188 108.402344 18.28125 C 108.421875 18.320312 108.425781 18.402344 108.40625 18.460938 C 108.386719 18.523438 108.332031 18.597656 108.28125 18.625 C 108.230469 18.65625 108.15625 18.671875 108.117188 18.660156 C 108.078125 18.648438 107.851562 18.523438 107.613281 18.386719 C 107.375 18.246094 106.984375 18.058594 106.746094 17.964844 C 106.507812 17.871094 106.257812 17.792969 106.191406 17.789062 C 106.097656 17.785156 106.050781 17.753906 105.984375 17.644531 C 105.9375 17.566406 105.910156 17.472656 105.921875 17.429688 Z M 105.921875 17.429688 " fill-opacity="1" fill-rule="nonzero"/></g></g></g><g fill="#cd572d" fill-opacity="1"><g transform="translate(15.520498, 27.57887)"><g><path d="M 8.390625 -8.78125 L 5.265625 -8.78125 L 5.265625 0 L 3.34375 0 L 3.34375 -8.78125 L 0.21875 -8.78125 L 0.21875 -10.359375 L 8.390625 -10.359375 Z M 8.390625 -8.78125 "/></g></g></g><g fill="#cd572d" fill-opacity="1"><g transform="translate(24.119902, 27.57887)"><g><path d="M 4.75 -3.140625 C 4.238281 -3.117188 3.804688 -3.070312 3.453125 -3 C 3.109375 -2.9375 2.832031 -2.851562 2.625 -2.75 C 2.414062 -2.65625 2.265625 -2.539062 2.171875 -2.40625 C 2.085938 -2.269531 2.046875 -2.125 2.046875 -1.96875 C 2.046875 -1.65625 2.132812 -1.429688 2.3125 -1.296875 C 2.5 -1.171875 2.738281 -1.109375 3.03125 -1.109375 C 3.394531 -1.109375 3.707031 -1.171875 3.96875 -1.296875 C 4.238281 -1.429688 4.5 -1.632812 4.75 -1.90625 Z M 0.703125 -6.328125 C 1.546875 -7.097656 2.5625 -7.484375 3.75 -7.484375 C 4.1875 -7.484375 4.570312 -7.410156 4.90625 -7.265625 C 5.25 -7.128906 5.535156 -6.9375 5.765625 -6.6875 C 6.003906 -6.4375 6.179688 -6.132812 6.296875 -5.78125 C 6.421875 -5.4375 6.484375 -5.054688 6.484375 -4.640625 L 6.484375 0 L 5.6875 0 C 5.519531 0 5.390625 -0.0234375 5.296875 -0.078125 C 5.203125 -0.128906 5.128906 -0.226562 5.078125 -0.375 L 4.921875 -0.90625 C 4.734375 -0.738281 4.550781 -0.59375 4.375 -0.46875 C 4.195312 -0.34375 4.007812 -0.234375 3.8125 -0.140625 C 3.625 -0.0546875 3.421875 0.00390625 3.203125 0.046875 C 2.992188 0.0859375 2.757812 0.109375 2.5 0.109375 C 2.1875 0.109375 1.894531 0.0664062 1.625 -0.015625 C 1.363281 -0.0976562 1.140625 -0.222656 0.953125 -0.390625 C 0.765625 -0.554688 0.613281 -0.757812 0.5 -1 C 0.394531 -1.25 0.34375 -1.539062 0.34375 -1.875 C 0.34375 -2.0625 0.375 -2.242188 0.4375 -2.421875 C 0.5 -2.609375 0.597656 -2.785156 0.734375 -2.953125 C 0.878906 -3.117188 1.066406 -3.273438 1.296875 -3.421875 C 1.523438 -3.578125 1.800781 -3.707031 2.125 -3.8125 C 2.445312 -3.925781 2.828125 -4.015625 3.265625 -4.078125 C 3.703125 -4.148438 4.195312 -4.195312 4.75 -4.21875 L 4.75 -4.640625 C 4.75 -5.128906 4.644531 -5.492188 4.4375 -5.734375 C 4.226562 -5.972656 3.925781 -6.09375 3.53125 -6.09375 C 3.25 -6.09375 3.007812 -6.054688 2.8125 -5.984375 C 2.625 -5.921875 2.457031 -5.847656 2.3125 -5.765625 C 2.175781 -5.679688 2.046875 -5.601562 1.921875 -5.53125 C 1.804688 -5.46875 1.679688 -5.4375 1.546875 -5.4375 C 1.421875 -5.4375 1.3125 -5.46875 1.21875 -5.53125 C 1.132812 -5.59375 1.066406 -5.671875 1.015625 -5.765625 Z M 0.703125 -6.328125 "/></g></g></g><g fill="#cd572d" fill-opacity="1"><g transform="translate(31.393564, 27.57887)"><g><path d="M 2.53125 -6.453125 C 2.675781 -6.597656 2.832031 -6.734375 3 -6.859375 C 3.164062 -6.984375 3.335938 -7.085938 3.515625 -7.171875 C 3.703125 -7.265625 3.898438 -7.335938 4.109375 -7.390625 C 4.316406 -7.441406 4.546875 -7.46875 4.796875 -7.46875 C 5.203125 -7.46875 5.554688 -7.398438 5.859375 -7.265625 C 6.171875 -7.128906 6.429688 -6.9375 6.640625 -6.6875 C 6.847656 -6.4375 7.003906 -6.140625 7.109375 -5.796875 C 7.222656 -5.460938 7.28125 -5.085938 7.28125 -4.671875 L 7.28125 0 L 5.515625 0 L 5.515625 -4.671875 C 5.515625 -5.117188 5.410156 -5.46875 5.203125 -5.71875 C 4.992188 -5.96875 4.679688 -6.09375 4.265625 -6.09375 C 3.953125 -6.09375 3.660156 -6.019531 3.390625 -5.875 C 3.128906 -5.738281 2.878906 -5.550781 2.640625 -5.3125 L 2.640625 0 L 0.875 0 L 0.875 -7.34375 L 1.953125 -7.34375 C 2.179688 -7.34375 2.332031 -7.238281 2.40625 -7.03125 Z M 2.53125 -6.453125 "/></g></g></g><g fill="#cd572d" fill-opacity="1"><g transform="translate(39.476999, 27.57887)"><g><path d="M 11.03125 -5.171875 C 11.03125 -4.421875 10.90625 -3.71875 10.65625 -3.0625 C 10.40625 -2.414062 10.050781 -1.859375 9.59375 -1.390625 C 9.132812 -0.921875 8.582031 -0.550781 7.9375 -0.28125 C 7.289062 -0.0195312 6.570312 0.109375 5.78125 0.109375 C 5 0.109375 4.285156 -0.0195312 3.640625 -0.28125 C 2.992188 -0.550781 2.441406 -0.921875 1.984375 -1.390625 C 1.523438 -1.859375 1.164062 -2.414062 0.90625 -3.0625 C 0.65625 -3.71875 0.53125 -4.421875 0.53125 -5.171875 C 0.53125 -5.929688 0.65625 -6.632812 0.90625 -7.28125 C 1.164062 -7.9375 1.523438 -8.5 1.984375 -8.96875 C 2.441406 -9.4375 2.992188 -9.800781 3.640625 -10.0625 C 4.285156 -10.332031 5 -10.46875 5.78125 -10.46875 C 6.3125 -10.46875 6.804688 -10.40625 7.265625 -10.28125 C 7.734375 -10.164062 8.160156 -9.992188 8.546875 -9.765625 C 8.929688 -9.546875 9.273438 -9.273438 9.578125 -8.953125 C 9.890625 -8.640625 10.15625 -8.285156 10.375 -7.890625 C 10.59375 -7.503906 10.753906 -7.082031 10.859375 -6.625 C 10.972656 -6.164062 11.03125 -5.679688 11.03125 -5.171875 Z M 9.0625 -5.171875 C 9.0625 -5.742188 8.984375 -6.253906 8.828125 -6.703125 C 8.679688 -7.160156 8.46875 -7.546875 8.1875 -7.859375 C 7.90625 -8.171875 7.5625 -8.410156 7.15625 -8.578125 C 6.75 -8.742188 6.289062 -8.828125 5.78125 -8.828125 C 5.28125 -8.828125 4.828125 -8.742188 4.421875 -8.578125 C 4.015625 -8.410156 3.671875 -8.171875 3.390625 -7.859375 C 3.109375 -7.546875 2.890625 -7.160156 2.734375 -6.703125 C 2.578125 -6.253906 2.5 -5.742188 2.5 -5.171875 C 2.5 -4.609375 2.578125 -4.097656 2.734375 -3.640625 C 2.890625 -3.191406 3.109375 -2.8125 3.390625 -2.5 C 3.671875 -2.1875 4.015625 -1.945312 4.421875 -1.78125 C 4.828125 -1.613281 5.28125 -1.53125 5.78125 -1.53125 C 6.289062 -1.53125 6.75 -1.613281 7.15625 -1.78125 C 7.5625 -1.945312 7.90625 -2.1875 8.1875 -2.5 C 8.46875 -2.8125 8.679688 -3.191406 8.828125 -3.640625 C 8.984375 -4.097656 9.0625 -4.609375 9.0625 -5.171875 Z M 9.0625 -5.171875 "/></g></g></g><g fill="#cd572d" fill-opacity="1"><g transform="translate(51.05753, 27.57887)"><g><path d="M 2.078125 -11.046875 C 2.304688 -10.671875 2.460938 -10.28125 2.546875 -9.875 C 2.628906 -9.46875 2.632812 -9.0625 2.5625 -8.65625 C 2.5 -8.257812 2.359375 -7.878906 2.140625 -7.515625 C 1.929688 -7.148438 1.648438 -6.820312 1.296875 -6.53125 L 0.734375 -6.875 C 0.679688 -6.894531 0.644531 -6.925781 0.625 -6.96875 C 0.613281 -7.007812 0.609375 -7.050781 0.609375 -7.09375 C 0.609375 -7.132812 0.613281 -7.171875 0.625 -7.203125 C 0.644531 -7.242188 0.671875 -7.28125 0.703125 -7.3125 C 0.804688 -7.4375 0.898438 -7.59375 0.984375 -7.78125 C 1.078125 -7.976562 1.140625 -8.195312 1.171875 -8.4375 C 1.210938 -8.6875 1.207031 -8.945312 1.15625 -9.21875 C 1.113281 -9.5 1.007812 -9.78125 0.84375 -10.0625 C 0.757812 -10.195312 0.734375 -10.316406 0.765625 -10.421875 C 0.804688 -10.523438 0.882812 -10.597656 1 -10.640625 Z M 2.078125 -11.046875 "/></g></g></g><g fill="#cd572d" fill-opacity="1"><g transform="translate(54.217811, 27.57887)"><g><path d="M 8.265625 -2.4375 C 8.367188 -2.4375 8.460938 -2.398438 8.546875 -2.328125 L 9.3125 -1.5 C 8.882812 -0.976562 8.363281 -0.578125 7.75 -0.296875 C 7.132812 -0.0234375 6.398438 0.109375 5.546875 0.109375 C 4.773438 0.109375 4.082031 -0.0195312 3.46875 -0.28125 C 2.851562 -0.539062 2.328125 -0.90625 1.890625 -1.375 C 1.460938 -1.84375 1.128906 -2.398438 0.890625 -3.046875 C 0.660156 -3.703125 0.546875 -4.410156 0.546875 -5.171875 C 0.546875 -5.953125 0.671875 -6.664062 0.921875 -7.3125 C 1.171875 -7.957031 1.519531 -8.515625 1.96875 -8.984375 C 2.425781 -9.453125 2.96875 -9.816406 3.59375 -10.078125 C 4.21875 -10.335938 4.910156 -10.46875 5.671875 -10.46875 C 6.421875 -10.46875 7.085938 -10.34375 7.671875 -10.09375 C 8.253906 -9.851562 8.753906 -9.53125 9.171875 -9.125 L 8.53125 -8.234375 C 8.488281 -8.171875 8.4375 -8.117188 8.375 -8.078125 C 8.3125 -8.035156 8.226562 -8.015625 8.125 -8.015625 C 8.0625 -8.015625 7.988281 -8.035156 7.90625 -8.078125 C 7.832031 -8.117188 7.75 -8.164062 7.65625 -8.21875 C 7.5625 -8.28125 7.453125 -8.347656 7.328125 -8.421875 C 7.210938 -8.492188 7.078125 -8.5625 6.921875 -8.625 C 6.765625 -8.6875 6.582031 -8.734375 6.375 -8.765625 C 6.164062 -8.804688 5.925781 -8.828125 5.65625 -8.828125 C 5.195312 -8.828125 4.773438 -8.742188 4.390625 -8.578125 C 4.003906 -8.421875 3.671875 -8.1875 3.390625 -7.875 C 3.117188 -7.5625 2.90625 -7.175781 2.75 -6.71875 C 2.59375 -6.269531 2.515625 -5.753906 2.515625 -5.171875 C 2.515625 -4.597656 2.597656 -4.082031 2.765625 -3.625 C 2.929688 -3.164062 3.15625 -2.78125 3.4375 -2.46875 C 3.71875 -2.164062 4.046875 -1.929688 4.421875 -1.765625 C 4.804688 -1.597656 5.222656 -1.515625 5.671875 -1.515625 C 5.929688 -1.515625 6.164062 -1.53125 6.375 -1.5625 C 6.59375 -1.59375 6.789062 -1.640625 6.96875 -1.703125 C 7.144531 -1.765625 7.3125 -1.84375 7.46875 -1.9375 C 7.632812 -2.03125 7.796875 -2.148438 7.953125 -2.296875 C 8.003906 -2.335938 8.054688 -2.367188 8.109375 -2.390625 C 8.160156 -2.421875 8.210938 -2.4375 8.265625 -2.4375 Z M 8.265625 -2.4375 "/></g></g></g><g fill="#cd572d" fill-opacity="1"><g transform="translate(63.698648, 27.57887)"><g><path d="M 2.671875 -10.640625 L 2.671875 0 L 0.890625 0 L 0.890625 -10.640625 Z M 2.671875 -10.640625 "/></g></g></g><g fill="#cd572d" fill-opacity="1"><g transform="translate(67.260237, 27.57887)"><g><path d="M 4.125 -7.46875 C 4.664062 -7.46875 5.160156 -7.378906 5.609375 -7.203125 C 6.054688 -7.023438 6.4375 -6.769531 6.75 -6.4375 C 7.070312 -6.113281 7.316406 -5.71875 7.484375 -5.25 C 7.660156 -4.789062 7.75 -4.269531 7.75 -3.6875 C 7.75 -3.101562 7.660156 -2.578125 7.484375 -2.109375 C 7.316406 -1.640625 7.070312 -1.238281 6.75 -0.90625 C 6.4375 -0.582031 6.054688 -0.332031 5.609375 -0.15625 C 5.160156 0.0195312 4.664062 0.109375 4.125 0.109375 C 3.570312 0.109375 3.070312 0.0195312 2.625 -0.15625 C 2.175781 -0.332031 1.789062 -0.582031 1.46875 -0.90625 C 1.15625 -1.238281 0.910156 -1.640625 0.734375 -2.109375 C 0.566406 -2.578125 0.484375 -3.101562 0.484375 -3.6875 C 0.484375 -4.269531 0.566406 -4.789062 0.734375 -5.25 C 0.910156 -5.71875 1.15625 -6.113281 1.46875 -6.4375 C 1.789062 -6.769531 2.175781 -7.023438 2.625 -7.203125 C 3.070312 -7.378906 3.570312 -7.46875 4.125 -7.46875 Z M 4.125 -1.25 C 4.738281 -1.25 5.191406 -1.453125 5.484375 -1.859375 C 5.773438 -2.273438 5.921875 -2.878906 5.921875 -3.671875 C 5.921875 -4.460938 5.773438 -5.066406 5.484375 -5.484375 C 5.191406 -5.898438 4.738281 -6.109375 4.125 -6.109375 C 3.5 -6.109375 3.035156 -5.898438 2.734375 -5.484375 C 2.441406 -5.066406 2.296875 -4.460938 2.296875 -3.671875 C 2.296875 -2.890625 2.441406 -2.289062 2.734375 -1.875 C 3.035156 -1.457031 3.5 -1.25 4.125 -1.25 Z M 4.125 -1.25 "/></g></g></g><g fill="#cd572d" fill-opacity="1"><g transform="translate(75.494164, 27.57887)"><g><path d="M 6.140625 -5.796875 C 6.085938 -5.734375 6.035156 -5.679688 5.984375 -5.640625 C 5.929688 -5.597656 5.859375 -5.578125 5.765625 -5.578125 C 5.671875 -5.578125 5.582031 -5.601562 5.5 -5.65625 C 5.414062 -5.71875 5.3125 -5.78125 5.1875 -5.84375 C 5.070312 -5.914062 4.929688 -5.976562 4.765625 -6.03125 C 4.597656 -6.09375 4.394531 -6.125 4.15625 -6.125 C 3.84375 -6.125 3.566406 -6.066406 3.328125 -5.953125 C 3.097656 -5.835938 2.90625 -5.675781 2.75 -5.46875 C 2.59375 -5.257812 2.476562 -5.003906 2.40625 -4.703125 C 2.332031 -4.398438 2.296875 -4.0625 2.296875 -3.6875 C 2.296875 -3.300781 2.335938 -2.953125 2.421875 -2.640625 C 2.503906 -2.335938 2.625 -2.082031 2.78125 -1.875 C 2.9375 -1.664062 3.125 -1.503906 3.34375 -1.390625 C 3.570312 -1.285156 3.828125 -1.234375 4.109375 -1.234375 C 4.390625 -1.234375 4.617188 -1.269531 4.796875 -1.34375 C 4.972656 -1.414062 5.117188 -1.492188 5.234375 -1.578125 C 5.359375 -1.660156 5.460938 -1.734375 5.546875 -1.796875 C 5.640625 -1.867188 5.738281 -1.90625 5.84375 -1.90625 C 5.988281 -1.90625 6.097656 -1.847656 6.171875 -1.734375 L 6.671875 -1.09375 C 6.484375 -0.863281 6.273438 -0.671875 6.046875 -0.515625 C 5.816406 -0.359375 5.578125 -0.234375 5.328125 -0.140625 C 5.078125 -0.046875 4.820312 0.015625 4.5625 0.046875 C 4.300781 0.0859375 4.046875 0.109375 3.796875 0.109375 C 3.335938 0.109375 2.90625 0.0234375 2.5 -0.140625 C 2.101562 -0.316406 1.753906 -0.566406 1.453125 -0.890625 C 1.148438 -1.210938 0.910156 -1.609375 0.734375 -2.078125 C 0.566406 -2.546875 0.484375 -3.082031 0.484375 -3.6875 C 0.484375 -4.226562 0.5625 -4.726562 0.71875 -5.1875 C 0.875 -5.644531 1.097656 -6.039062 1.390625 -6.375 C 1.691406 -6.71875 2.066406 -6.984375 2.515625 -7.171875 C 2.960938 -7.367188 3.472656 -7.46875 4.046875 -7.46875 C 4.597656 -7.46875 5.078125 -7.378906 5.484375 -7.203125 C 5.898438 -7.023438 6.273438 -6.769531 6.609375 -6.4375 Z M 6.140625 -5.796875 "/></g></g></g><g fill="#cd572d" fill-opacity="1"><g transform="translate(82.402349, 27.57887)"><g><path d="M 2.640625 -10.640625 L 2.640625 -4.546875 L 2.96875 -4.546875 C 3.09375 -4.546875 3.1875 -4.5625 3.25 -4.59375 C 3.320312 -4.625 3.394531 -4.6875 3.46875 -4.78125 L 5.296875 -7.046875 C 5.367188 -7.140625 5.453125 -7.210938 5.546875 -7.265625 C 5.640625 -7.316406 5.757812 -7.34375 5.90625 -7.34375 L 7.53125 -7.34375 L 5.25 -4.625 C 5.082031 -4.40625 4.90625 -4.238281 4.71875 -4.125 C 4.8125 -4.050781 4.894531 -3.96875 4.96875 -3.875 C 5.050781 -3.78125 5.128906 -3.675781 5.203125 -3.5625 L 7.65625 0 L 6.0625 0 C 5.925781 0 5.804688 -0.0195312 5.703125 -0.0625 C 5.597656 -0.113281 5.515625 -0.195312 5.453125 -0.3125 L 3.578125 -3.109375 C 3.503906 -3.210938 3.429688 -3.28125 3.359375 -3.3125 C 3.296875 -3.34375 3.191406 -3.359375 3.046875 -3.359375 L 2.640625 -3.359375 L 2.640625 0 L 0.875 0 L 0.875 -10.640625 Z M 2.640625 -10.640625 "/></g></g></g></svg>