<svg xmlns="http://www.w3.org/2000/svg" xmlns:xlink="http://www.w3.org/1999/xlink" width="50" zoomAndPan="magnify" viewBox="0 0 37.5 37.499999" height="50" preserveAspectRatio="xMidYMid meet" version="1.0"><path fill="#fbc141" d="M 13.742188 8.113281 L 10.503906 0.304688 L 11.269531 -0.0117188 L 14.503906 7.796875 Z M 0.304688 10.503906 L 8.113281 13.742188 L 7.796875 14.503906 L -0.0117188 11.269531 Z M 7.796875 22.460938 L 8.113281 23.226562 L 0.304688 26.460938 L -0.0117188 25.695312 Z M 13.742188 28.851562 L 14.503906 29.167969 L 11.269531 36.976562 L 10.503906 36.660156 Z M 23.226562 28.851562 L 26.460938 36.660156 L 25.695312 36.976562 L 22.460938 29.167969 Z M 29.167969 22.460938 L 36.976562 25.695312 L 36.660156 26.460938 L 28.851562 23.226562 Z M 29.167969 14.503906 L 28.851562 13.742188 L 36.660156 10.503906 L 36.976562 11.269531 Z M 23.226562 8.113281 L 22.460938 7.796875 L 25.695312 -0.0117188 L 26.460938 0.304688 Z M 25.578125 21.421875 C 23.957031 25.335938 19.453125 27.199219 15.542969 25.578125 C 11.628906 23.957031 9.765625 19.457031 11.386719 15.542969 C 12.609375 12.585938 15.476562 10.800781 18.492188 10.800781 C 19.472656 10.800781 20.464844 10.988281 21.421875 11.386719 C 25.335938 13.007812 27.203125 17.507812 25.578125 21.421875 Z M 21.738281 10.621094 C 19.640625 9.753906 17.324219 9.753906 15.226562 10.621094 C 13.125 11.492188 11.492188 13.125 10.621094 15.226562 C 9.753906 17.324219 9.753906 19.640625 10.621094 21.738281 C 11.492188 23.839844 13.125 25.472656 15.226562 26.34375 C 16.277344 26.777344 17.378906 26.996094 18.484375 26.996094 C 19.585938 26.996094 20.6875 26.777344 21.738281 26.34375 C 23.839844 25.472656 25.472656 23.839844 26.34375 21.738281 C 27.210938 19.640625 27.210938 17.324219 26.34375 15.226562 C 25.472656 13.125 23.839844 11.492188 21.738281 10.621094 " fill-opacity="1" fill-rule="nonzero"/></svg>