<svg xmlns="http://www.w3.org/2000/svg" xmlns:xlink="http://www.w3.org/1999/xlink" width="150" zoomAndPan="magnify" viewBox="0 0 112.5 37.5" height="50" preserveAspectRatio="xMidYMid meet" version="1.0"><defs><g/><clipPath id="48f6466fb6"><path d="M 0.492188 11 L 11 11 L 11 24 L 0.492188 24 Z M 0.492188 11 " clip-rule="nonzero"/></clipPath><clipPath id="703ae98219"><path d="M 35 0 L 38 0 L 38 10 L 35 10 Z M 35 0 " clip-rule="nonzero"/></clipPath><clipPath id="9e0e7d15f6"><path d="M 25.265625 0.429688 L 46.699219 -0.753906 L 47.308594 10.332031 L 25.878906 11.515625 Z M 25.265625 0.429688 " clip-rule="nonzero"/></clipPath><clipPath id="7b412c06ca"><path d="M 25.265625 0.429688 L 46.699219 -0.753906 L 47.308594 10.332031 L 25.878906 11.515625 Z M 25.265625 0.429688 " clip-rule="nonzero"/></clipPath><clipPath id="7b78ba7993"><path d="M 40 3 L 47 3 L 47 11 L 40 11 Z M 40 3 " clip-rule="nonzero"/></clipPath><clipPath id="d47b7ad901"><path d="M 25.265625 0.429688 L 46.699219 -0.753906 L 47.308594 10.332031 L 25.878906 11.515625 Z M 25.265625 0.429688 " clip-rule="nonzero"/></clipPath><clipPath id="ce11071b2d"><path d="M 25.265625 0.429688 L 46.699219 -0.753906 L 47.308594 10.332031 L 25.878906 11.515625 Z M 25.265625 0.429688 " clip-rule="nonzero"/></clipPath><clipPath id="0cc7bc8946"><path d="M 25 5 L 32 5 L 32 12 L 25 12 Z M 25 5 " clip-rule="nonzero"/></clipPath><clipPath id="9c14048135"><path d="M 25.265625 0.429688 L 46.699219 -0.753906 L 47.308594 10.332031 L 25.878906 11.515625 Z M 25.265625 0.429688 " clip-rule="nonzero"/></clipPath><clipPath id="452229f07a"><path d="M 25.265625 0.429688 L 46.699219 -0.753906 L 47.308594 10.332031 L 25.878906 11.515625 Z M 25.265625 0.429688 " clip-rule="nonzero"/></clipPath><clipPath id="983408a0a4"><path d="M 35 26 L 38 26 L 38 36 L 35 36 Z M 35 26 " clip-rule="nonzero"/></clipPath><clipPath id="4358650671"><path d="M 47.273438 35.460938 L 25.824219 36.269531 L 25.410156 25.175781 L 46.855469 24.367188 Z M 47.273438 35.460938 " clip-rule="nonzero"/></clipPath><clipPath id="7dc27583de"><path d="M 47.273438 35.460938 L 25.824219 36.269531 L 25.410156 25.175781 L 46.855469 24.367188 Z M 47.273438 35.460938 " clip-rule="nonzero"/></clipPath><clipPath id="0e849ea785"><path d="M 25 24 L 33 24 L 33 32 L 25 32 Z M 25 24 " clip-rule="nonzero"/></clipPath><clipPath id="7ac84bdb2a"><path d="M 47.273438 35.460938 L 25.824219 36.269531 L 25.410156 25.175781 L 46.855469 24.367188 Z M 47.273438 35.460938 " clip-rule="nonzero"/></clipPath><clipPath id="021f447921"><path d="M 47.273438 35.460938 L 25.824219 36.269531 L 25.410156 25.175781 L 46.855469 24.367188 Z M 47.273438 35.460938 " clip-rule="nonzero"/></clipPath><clipPath id="b483aacc35"><path d="M 40 24 L 48 24 L 48 30 L 40 30 Z M 40 24 " clip-rule="nonzero"/></clipPath><clipPath id="7433c821cb"><path d="M 47.273438 35.460938 L 25.824219 36.269531 L 25.410156 25.175781 L 46.855469 24.367188 Z M 47.273438 35.460938 " clip-rule="nonzero"/></clipPath><clipPath id="a24c792611"><path d="M 47.273438 35.460938 L 25.824219 36.269531 L 25.410156 25.175781 L 46.855469 24.367188 Z M 47.273438 35.460938 " clip-rule="nonzero"/></clipPath></defs><g clip-path="url(#48f6466fb6)"><g fill="#cd572d" fill-opacity="1"><g transform="translate(0.588324, 23.521346)"><g><path d="M 10.046875 -10.515625 L 6.3125 -10.515625 L 6.3125 0 L 4 0 L 4 -10.515625 L 0.25 -10.515625 L 0.25 -12.421875 L 10.046875 -12.421875 Z M 10.046875 -10.515625 "/></g></g></g></g><g fill="#cd572d" fill-opacity="1"><g transform="translate(10.892758, 23.521346)"><g><path d="M 5.703125 -3.765625 C 5.085938 -3.734375 4.570312 -3.675781 4.15625 -3.59375 C 3.738281 -3.519531 3.398438 -3.421875 3.140625 -3.296875 C 2.890625 -3.179688 2.710938 -3.039062 2.609375 -2.875 C 2.503906 -2.71875 2.453125 -2.546875 2.453125 -2.359375 C 2.453125 -1.984375 2.5625 -1.71875 2.78125 -1.5625 C 3 -1.40625 3.285156 -1.328125 3.640625 -1.328125 C 4.078125 -1.328125 4.453125 -1.40625 4.765625 -1.5625 C 5.085938 -1.71875 5.398438 -1.957031 5.703125 -2.28125 Z M 0.84375 -7.578125 C 1.851562 -8.503906 3.070312 -8.96875 4.5 -8.96875 C 5.007812 -8.96875 5.46875 -8.882812 5.875 -8.71875 C 6.28125 -8.550781 6.625 -8.316406 6.90625 -8.015625 C 7.1875 -7.710938 7.398438 -7.351562 7.546875 -6.9375 C 7.691406 -6.519531 7.765625 -6.0625 7.765625 -5.5625 L 7.765625 0 L 6.8125 0 C 6.613281 0 6.457031 -0.03125 6.34375 -0.09375 C 6.238281 -0.15625 6.15625 -0.273438 6.09375 -0.453125 L 5.90625 -1.09375 C 5.675781 -0.894531 5.453125 -0.71875 5.234375 -0.5625 C 5.023438 -0.40625 4.804688 -0.273438 4.578125 -0.171875 C 4.347656 -0.078125 4.101562 -0.00390625 3.84375 0.046875 C 3.582031 0.109375 3.296875 0.140625 2.984375 0.140625 C 2.617188 0.140625 2.273438 0.09375 1.953125 0 C 1.640625 -0.101562 1.367188 -0.253906 1.140625 -0.453125 C 0.910156 -0.660156 0.734375 -0.910156 0.609375 -1.203125 C 0.484375 -1.503906 0.421875 -1.851562 0.421875 -2.25 C 0.421875 -2.46875 0.457031 -2.6875 0.53125 -2.90625 C 0.601562 -3.132812 0.722656 -3.347656 0.890625 -3.546875 C 1.066406 -3.742188 1.285156 -3.929688 1.546875 -4.109375 C 1.816406 -4.285156 2.148438 -4.441406 2.546875 -4.578125 C 2.941406 -4.710938 3.398438 -4.816406 3.921875 -4.890625 C 4.441406 -4.972656 5.035156 -5.023438 5.703125 -5.046875 L 5.703125 -5.5625 C 5.703125 -6.15625 5.578125 -6.59375 5.328125 -6.875 C 5.078125 -7.15625 4.710938 -7.296875 4.234375 -7.296875 C 3.890625 -7.296875 3.601562 -7.253906 3.375 -7.171875 C 3.15625 -7.097656 2.957031 -7.007812 2.78125 -6.90625 C 2.613281 -6.800781 2.457031 -6.707031 2.3125 -6.625 C 2.175781 -6.550781 2.019531 -6.515625 1.84375 -6.515625 C 1.695312 -6.515625 1.570312 -6.550781 1.46875 -6.625 C 1.363281 -6.707031 1.28125 -6.800781 1.21875 -6.90625 Z M 0.84375 -7.578125 "/></g></g></g><g fill="#cd572d" fill-opacity="1"><g transform="translate(19.60859, 23.521346)"><g><path d="M 3.03125 -7.734375 C 3.207031 -7.910156 3.394531 -8.070312 3.59375 -8.21875 C 3.789062 -8.375 4 -8.503906 4.21875 -8.609375 C 4.4375 -8.710938 4.671875 -8.796875 4.921875 -8.859375 C 5.179688 -8.921875 5.457031 -8.953125 5.75 -8.953125 C 6.226562 -8.953125 6.65625 -8.867188 7.03125 -8.703125 C 7.40625 -8.535156 7.71875 -8.304688 7.96875 -8.015625 C 8.21875 -7.722656 8.40625 -7.367188 8.53125 -6.953125 C 8.65625 -6.546875 8.71875 -6.097656 8.71875 -5.609375 L 8.71875 0 L 6.609375 0 L 6.609375 -5.609375 C 6.609375 -6.140625 6.484375 -6.550781 6.234375 -6.84375 C 5.984375 -7.144531 5.609375 -7.296875 5.109375 -7.296875 C 4.742188 -7.296875 4.398438 -7.210938 4.078125 -7.046875 C 3.753906 -6.878906 3.453125 -6.65625 3.171875 -6.375 L 3.171875 0 L 1.046875 0 L 1.046875 -8.8125 L 2.34375 -8.8125 C 2.613281 -8.8125 2.796875 -8.679688 2.890625 -8.421875 Z M 3.03125 -7.734375 "/></g></g></g><g fill="#cd572d" fill-opacity="1"><g transform="translate(29.294751, 23.521346)"><g><path d="M 13.21875 -6.203125 C 13.21875 -5.296875 13.066406 -4.453125 12.765625 -3.671875 C 12.472656 -2.898438 12.050781 -2.226562 11.5 -1.65625 C 10.945312 -1.09375 10.285156 -0.648438 9.515625 -0.328125 C 8.742188 -0.015625 7.882812 0.140625 6.9375 0.140625 C 6 0.140625 5.144531 -0.015625 4.375 -0.328125 C 3.601562 -0.648438 2.9375 -1.09375 2.375 -1.65625 C 1.820312 -2.226562 1.394531 -2.898438 1.09375 -3.671875 C 0.789062 -4.453125 0.640625 -5.296875 0.640625 -6.203125 C 0.640625 -7.117188 0.789062 -7.960938 1.09375 -8.734375 C 1.394531 -9.515625 1.820312 -10.1875 2.375 -10.75 C 2.9375 -11.3125 3.601562 -11.75 4.375 -12.0625 C 5.144531 -12.382812 6 -12.546875 6.9375 -12.546875 C 7.5625 -12.546875 8.148438 -12.472656 8.703125 -12.328125 C 9.265625 -12.179688 9.773438 -11.972656 10.234375 -11.703125 C 10.703125 -11.441406 11.117188 -11.117188 11.484375 -10.734375 C 11.859375 -10.359375 12.171875 -9.9375 12.421875 -9.46875 C 12.679688 -9 12.878906 -8.488281 13.015625 -7.9375 C 13.148438 -7.394531 13.21875 -6.816406 13.21875 -6.203125 Z M 10.859375 -6.203125 C 10.859375 -6.890625 10.765625 -7.503906 10.578125 -8.046875 C 10.398438 -8.585938 10.140625 -9.046875 9.796875 -9.421875 C 9.460938 -9.796875 9.050781 -10.082031 8.5625 -10.28125 C 8.082031 -10.488281 7.539062 -10.59375 6.9375 -10.59375 C 6.332031 -10.59375 5.785156 -10.488281 5.296875 -10.28125 C 4.816406 -10.082031 4.40625 -9.796875 4.0625 -9.421875 C 3.71875 -9.046875 3.453125 -8.585938 3.265625 -8.046875 C 3.085938 -7.503906 3 -6.890625 3 -6.203125 C 3 -5.523438 3.085938 -4.914062 3.265625 -4.375 C 3.453125 -3.832031 3.71875 -3.375 4.0625 -3 C 4.40625 -2.625 4.816406 -2.335938 5.296875 -2.140625 C 5.785156 -1.941406 6.332031 -1.84375 6.9375 -1.84375 C 7.539062 -1.84375 8.082031 -1.941406 8.5625 -2.140625 C 9.050781 -2.335938 9.460938 -2.625 9.796875 -3 C 10.140625 -3.375 10.398438 -3.832031 10.578125 -4.375 C 10.765625 -4.914062 10.859375 -5.523438 10.859375 -6.203125 Z M 10.859375 -6.203125 "/></g></g></g><g fill="#cd572d" fill-opacity="1"><g transform="translate(43.171387, 23.521346)"><g><path d="M 2.484375 -13.25 C 2.753906 -12.800781 2.9375 -12.332031 3.03125 -11.84375 C 3.132812 -11.351562 3.144531 -10.867188 3.0625 -10.390625 C 2.988281 -9.910156 2.820312 -9.453125 2.5625 -9.015625 C 2.3125 -8.578125 1.96875 -8.179688 1.53125 -7.828125 L 0.875 -8.234375 C 0.8125 -8.265625 0.769531 -8.304688 0.75 -8.359375 C 0.726562 -8.410156 0.71875 -8.457031 0.71875 -8.5 C 0.71875 -8.550781 0.726562 -8.597656 0.75 -8.640625 C 0.769531 -8.691406 0.796875 -8.734375 0.828125 -8.765625 C 0.953125 -8.910156 1.066406 -9.097656 1.171875 -9.328125 C 1.285156 -9.566406 1.363281 -9.832031 1.40625 -10.125 C 1.445312 -10.414062 1.441406 -10.726562 1.390625 -11.0625 C 1.335938 -11.394531 1.207031 -11.726562 1 -12.0625 C 0.90625 -12.226562 0.878906 -12.367188 0.921875 -12.484375 C 0.960938 -12.609375 1.050781 -12.695312 1.1875 -12.75 Z M 2.484375 -13.25 "/></g></g></g><g fill="#cd572d" fill-opacity="1"><g transform="translate(46.958266, 23.521346)"><g><path d="M 9.90625 -2.921875 C 10.03125 -2.921875 10.144531 -2.875 10.25 -2.78125 L 11.15625 -1.796875 C 10.644531 -1.171875 10.019531 -0.691406 9.28125 -0.359375 C 8.550781 -0.0234375 7.671875 0.140625 6.640625 0.140625 C 5.722656 0.140625 4.894531 -0.015625 4.15625 -0.328125 C 3.425781 -0.648438 2.800781 -1.085938 2.28125 -1.640625 C 1.757812 -2.203125 1.359375 -2.875 1.078125 -3.65625 C 0.796875 -4.4375 0.65625 -5.285156 0.65625 -6.203125 C 0.65625 -7.140625 0.800781 -7.992188 1.09375 -8.765625 C 1.394531 -9.546875 1.816406 -10.210938 2.359375 -10.765625 C 2.898438 -11.328125 3.546875 -11.765625 4.296875 -12.078125 C 5.046875 -12.390625 5.878906 -12.546875 6.796875 -12.546875 C 7.691406 -12.546875 8.488281 -12.394531 9.1875 -12.09375 C 9.894531 -11.800781 10.492188 -11.414062 10.984375 -10.9375 L 10.21875 -9.859375 C 10.175781 -9.796875 10.117188 -9.738281 10.046875 -9.6875 C 9.972656 -9.632812 9.875 -9.609375 9.75 -9.609375 C 9.65625 -9.609375 9.5625 -9.628906 9.46875 -9.671875 C 9.382812 -9.722656 9.285156 -9.785156 9.171875 -9.859375 C 9.066406 -9.929688 8.941406 -10.007812 8.796875 -10.09375 C 8.648438 -10.175781 8.484375 -10.253906 8.296875 -10.328125 C 8.109375 -10.398438 7.890625 -10.460938 7.640625 -10.515625 C 7.390625 -10.566406 7.101562 -10.59375 6.78125 -10.59375 C 6.226562 -10.59375 5.71875 -10.492188 5.25 -10.296875 C 4.789062 -10.097656 4.394531 -9.8125 4.0625 -9.4375 C 3.738281 -9.0625 3.484375 -8.601562 3.296875 -8.0625 C 3.109375 -7.519531 3.015625 -6.898438 3.015625 -6.203125 C 3.015625 -5.503906 3.113281 -4.882812 3.3125 -4.34375 C 3.507812 -3.800781 3.773438 -3.34375 4.109375 -2.96875 C 4.453125 -2.59375 4.851562 -2.304688 5.3125 -2.109375 C 5.769531 -1.910156 6.265625 -1.8125 6.796875 -1.8125 C 7.109375 -1.8125 7.390625 -1.828125 7.640625 -1.859375 C 7.898438 -1.898438 8.132812 -1.957031 8.34375 -2.03125 C 8.5625 -2.101562 8.765625 -2.195312 8.953125 -2.3125 C 9.148438 -2.4375 9.34375 -2.582031 9.53125 -2.75 C 9.582031 -2.800781 9.640625 -2.84375 9.703125 -2.875 C 9.773438 -2.90625 9.84375 -2.921875 9.90625 -2.921875 Z M 9.90625 -2.921875 "/></g></g></g><g fill="#cd572d" fill-opacity="1"><g transform="translate(58.318897, 23.521346)"><g><path d="M 3.1875 -12.765625 L 3.1875 0 L 1.078125 0 L 1.078125 -12.765625 Z M 3.1875 -12.765625 "/></g></g></g><g fill="#cd572d" fill-opacity="1"><g transform="translate(62.586652, 23.521346)"><g><path d="M 4.953125 -8.953125 C 5.597656 -8.953125 6.1875 -8.84375 6.71875 -8.625 C 7.257812 -8.414062 7.71875 -8.113281 8.09375 -7.71875 C 8.476562 -7.332031 8.773438 -6.859375 8.984375 -6.296875 C 9.191406 -5.734375 9.296875 -5.109375 9.296875 -4.421875 C 9.296875 -3.722656 9.191406 -3.09375 8.984375 -2.53125 C 8.773438 -1.96875 8.476562 -1.488281 8.09375 -1.09375 C 7.71875 -0.695312 7.257812 -0.394531 6.71875 -0.1875 C 6.1875 0.0195312 5.597656 0.125 4.953125 0.125 C 4.285156 0.125 3.679688 0.0195312 3.140625 -0.1875 C 2.609375 -0.394531 2.148438 -0.695312 1.765625 -1.09375 C 1.390625 -1.488281 1.097656 -1.96875 0.890625 -2.53125 C 0.679688 -3.09375 0.578125 -3.722656 0.578125 -4.421875 C 0.578125 -5.109375 0.679688 -5.734375 0.890625 -6.296875 C 1.097656 -6.859375 1.390625 -7.332031 1.765625 -7.71875 C 2.148438 -8.113281 2.609375 -8.414062 3.140625 -8.625 C 3.679688 -8.84375 4.285156 -8.953125 4.953125 -8.953125 Z M 4.953125 -1.5 C 5.679688 -1.5 6.21875 -1.742188 6.5625 -2.234375 C 6.914062 -2.734375 7.09375 -3.457031 7.09375 -4.40625 C 7.09375 -5.351562 6.914062 -6.078125 6.5625 -6.578125 C 6.21875 -7.078125 5.679688 -7.328125 4.953125 -7.328125 C 4.203125 -7.328125 3.644531 -7.078125 3.28125 -6.578125 C 2.925781 -6.078125 2.75 -5.351562 2.75 -4.40625 C 2.75 -3.457031 2.925781 -2.734375 3.28125 -2.234375 C 3.644531 -1.742188 4.203125 -1.5 4.953125 -1.5 Z M 4.953125 -1.5 "/></g></g></g><g fill="#cd572d" fill-opacity="1"><g transform="translate(72.453143, 23.521346)"><g><path d="M 7.359375 -6.953125 C 7.296875 -6.867188 7.234375 -6.800781 7.171875 -6.75 C 7.109375 -6.707031 7.019531 -6.6875 6.90625 -6.6875 C 6.800781 -6.6875 6.695312 -6.71875 6.59375 -6.78125 C 6.488281 -6.851562 6.363281 -6.929688 6.21875 -7.015625 C 6.082031 -7.097656 5.914062 -7.171875 5.71875 -7.234375 C 5.519531 -7.296875 5.273438 -7.328125 4.984375 -7.328125 C 4.609375 -7.328125 4.28125 -7.257812 4 -7.125 C 3.71875 -6.988281 3.484375 -6.796875 3.296875 -6.546875 C 3.109375 -6.296875 2.96875 -5.988281 2.875 -5.625 C 2.789062 -5.269531 2.75 -4.867188 2.75 -4.421875 C 2.75 -3.953125 2.796875 -3.535156 2.890625 -3.171875 C 2.992188 -2.804688 3.140625 -2.5 3.328125 -2.25 C 3.515625 -2 3.742188 -1.804688 4.015625 -1.671875 C 4.285156 -1.546875 4.585938 -1.484375 4.921875 -1.484375 C 5.265625 -1.484375 5.539062 -1.523438 5.75 -1.609375 C 5.957031 -1.691406 6.128906 -1.78125 6.265625 -1.875 C 6.410156 -1.976562 6.535156 -2.070312 6.640625 -2.15625 C 6.753906 -2.238281 6.875 -2.28125 7 -2.28125 C 7.175781 -2.28125 7.304688 -2.21875 7.390625 -2.09375 L 8 -1.3125 C 7.769531 -1.039062 7.515625 -0.8125 7.234375 -0.625 C 6.960938 -0.4375 6.675781 -0.285156 6.375 -0.171875 C 6.082031 -0.0664062 5.78125 0.00390625 5.46875 0.046875 C 5.15625 0.0976562 4.847656 0.125 4.546875 0.125 C 3.992188 0.125 3.476562 0.0234375 3 -0.171875 C 2.519531 -0.378906 2.097656 -0.675781 1.734375 -1.0625 C 1.378906 -1.457031 1.097656 -1.9375 0.890625 -2.5 C 0.679688 -3.0625 0.578125 -3.703125 0.578125 -4.421875 C 0.578125 -5.066406 0.671875 -5.664062 0.859375 -6.21875 C 1.046875 -6.769531 1.316406 -7.25 1.671875 -7.65625 C 2.035156 -8.0625 2.484375 -8.378906 3.015625 -8.609375 C 3.546875 -8.835938 4.15625 -8.953125 4.84375 -8.953125 C 5.507812 -8.953125 6.085938 -8.84375 6.578125 -8.625 C 7.078125 -8.414062 7.523438 -8.113281 7.921875 -7.71875 Z M 7.359375 -6.953125 "/></g></g></g><g fill="#cd572d" fill-opacity="1"><g transform="translate(80.731034, 23.521346)"><g><path d="M 3.171875 -12.765625 L 3.171875 -5.453125 L 3.5625 -5.453125 C 3.707031 -5.453125 3.820312 -5.46875 3.90625 -5.5 C 3.988281 -5.539062 4.070312 -5.617188 4.15625 -5.734375 L 6.34375 -8.4375 C 6.4375 -8.5625 6.535156 -8.65625 6.640625 -8.71875 C 6.753906 -8.78125 6.898438 -8.8125 7.078125 -8.8125 L 9.03125 -8.8125 L 6.28125 -5.53125 C 6.09375 -5.28125 5.882812 -5.085938 5.65625 -4.953125 C 5.769531 -4.859375 5.875 -4.753906 5.96875 -4.640625 C 6.0625 -4.523438 6.148438 -4.40625 6.234375 -4.28125 L 9.171875 0 L 7.265625 0 C 7.097656 0 6.953125 -0.0234375 6.828125 -0.078125 C 6.710938 -0.128906 6.613281 -0.226562 6.53125 -0.375 L 4.28125 -3.71875 C 4.207031 -3.851562 4.125 -3.9375 4.03125 -3.96875 C 3.945312 -4.007812 3.820312 -4.03125 3.65625 -4.03125 L 3.171875 -4.03125 L 3.171875 0 L 1.046875 0 L 1.046875 -12.765625 Z M 3.171875 -12.765625 "/></g></g></g><g clip-path="url(#703ae98219)"><g clip-path="url(#9e0e7d15f6)"><g clip-path="url(#7b412c06ca)"><path fill="#fbc141" d="M 36.425781 -0.160156 C 36.15625 -0.136719 35.882812 -0.03125 35.707031 0.183594 C 35.65625 0.257812 35.605469 0.328125 35.554688 0.402344 C 35.46875 0.570312 35.429688 0.75 35.441406 0.9375 C 35.429688 1.148438 35.445312 1.363281 35.449219 1.578125 C 35.453125 1.785156 35.457031 1.992188 35.460938 2.199219 C 35.464844 2.476562 35.46875 2.753906 35.472656 3.03125 C 35.390625 3.597656 35.332031 4.167969 35.296875 4.742188 C 35.257812 5.476562 35.226562 6.214844 35.242188 6.953125 C 35.246094 7.152344 35.25 7.351562 35.261719 7.554688 C 35.273438 7.761719 35.296875 7.96875 35.304688 8.175781 C 35.289062 8.324219 35.285156 8.472656 35.296875 8.625 C 35.328125 9 35.613281 9.300781 35.992188 9.328125 C 36.375 9.359375 36.691406 9.109375 36.789062 8.742188 C 36.808594 8.675781 36.828125 8.605469 36.84375 8.535156 C 36.890625 8.519531 36.933594 8.496094 36.972656 8.46875 C 37.121094 8.359375 37.273438 8.191406 37.292969 8 C 37.339844 7.554688 37.382812 7.105469 37.414062 6.652344 C 37.488281 5.882812 37.523438 5.105469 37.542969 4.332031 C 37.550781 3.957031 37.546875 3.585938 37.558594 3.214844 C 37.566406 2.835938 37.570312 2.460938 37.566406 2.082031 C 37.5625 1.660156 37.546875 1.242188 37.523438 0.824219 C 37.507812 0.554688 37.378906 0.28125 37.179688 0.105469 C 36.988281 -0.0664062 36.683594 -0.1875 36.425781 -0.160156 Z M 36.425781 -0.160156 " fill-opacity="1" fill-rule="nonzero"/></g></g></g><g clip-path="url(#7b78ba7993)"><g clip-path="url(#d47b7ad901)"><g clip-path="url(#ce11071b2d)"><path fill="#fbc141" d="M 46.675781 4.175781 C 46.617188 4.027344 46.53125 3.910156 46.402344 3.820312 C 46.277344 3.734375 46.121094 3.675781 45.964844 3.691406 C 45.917969 3.699219 45.871094 3.707031 45.832031 3.71875 C 45.738281 3.667969 45.652344 3.65625 45.539062 3.648438 C 45.496094 3.644531 45.457031 3.640625 45.414062 3.640625 C 45.203125 3.640625 45.023438 3.746094 44.878906 3.886719 C 44.792969 3.972656 44.710938 4.070312 44.625 4.164062 C 44.464844 4.339844 44.304688 4.511719 44.15625 4.703125 C 43.863281 5.078125 43.570312 5.453125 43.277344 5.832031 C 42.695312 6.574219 42.117188 7.316406 41.539062 8.058594 C 41.210938 8.488281 40.878906 8.914062 40.546875 9.339844 C 40.421875 9.503906 40.339844 9.6875 40.351562 9.898438 C 40.363281 10.089844 40.460938 10.3125 40.609375 10.433594 C 40.761719 10.5625 40.960938 10.652344 41.167969 10.628906 C 41.367188 10.609375 41.570312 10.53125 41.703125 10.375 C 41.78125 10.277344 41.859375 10.183594 41.9375 10.085938 C 41.988281 10.070312 42.035156 10.046875 42.078125 10.011719 C 42.460938 9.722656 42.816406 9.394531 43.164062 9.0625 C 43.484375 8.757812 43.792969 8.445312 44.09375 8.121094 C 44.6875 7.476562 45.242188 6.792969 45.746094 6.074219 C 46.058594 5.636719 46.355469 5.1875 46.636719 4.722656 C 46.722656 4.578125 46.734375 4.328125 46.675781 4.175781 Z M 46.675781 4.175781 " fill-opacity="1" fill-rule="nonzero"/></g></g></g><g clip-path="url(#0cc7bc8946)"><g clip-path="url(#9c14048135)"><g clip-path="url(#452229f07a)"><path fill="#fbc141" d="M 31.644531 10.203125 C 31.667969 10.132812 31.675781 10.058594 31.664062 9.988281 C 31.660156 9.960938 31.65625 9.9375 31.652344 9.910156 C 31.652344 9.914062 31.652344 9.917969 31.652344 9.925781 C 31.648438 9.789062 31.613281 9.660156 31.539062 9.535156 C 31.523438 9.503906 31.503906 9.472656 31.484375 9.441406 C 31.445312 9.371094 31.40625 9.304688 31.363281 9.234375 C 31.28125 9.105469 31.195312 8.976562 31.105469 8.851562 C 30.890625 8.5625 30.625 8.292969 30.355469 8.054688 C 30.03125 7.761719 29.675781 7.507812 29.296875 7.292969 C 29.097656 7.113281 28.886719 6.9375 28.671875 6.773438 C 28.328125 6.511719 27.964844 6.261719 27.5625 6.089844 C 27.535156 6.082031 27.507812 6.070312 27.480469 6.058594 C 27.445312 6.03125 27.410156 6.007812 27.371094 5.984375 C 27.253906 5.917969 27.132812 5.886719 27.003906 5.886719 C 26.828125 5.875 26.636719 5.898438 26.476562 5.984375 C 26.445312 5.992188 26.417969 6 26.390625 6.011719 C 26.21875 6.082031 26.082031 6.164062 25.953125 6.300781 C 25.8125 6.441406 25.703125 6.644531 25.671875 6.84375 C 25.628906 7.074219 25.660156 7.351562 25.800781 7.550781 C 25.855469 7.609375 25.90625 7.667969 25.957031 7.726562 C 26.078125 7.835938 26.21875 7.90625 26.375 7.941406 C 26.429688 7.957031 26.480469 7.972656 26.535156 7.988281 C 26.671875 8.109375 26.820312 8.214844 26.976562 8.308594 C 27.03125 8.339844 27.089844 8.371094 27.148438 8.398438 C 27.410156 8.632812 27.683594 8.855469 27.953125 9.078125 C 28.238281 9.316406 28.527344 9.546875 28.820312 9.777344 C 29.113281 10.011719 29.398438 10.253906 29.6875 10.5 C 29.84375 10.636719 30.003906 10.769531 30.164062 10.90625 C 30.277344 11 30.398438 11.121094 30.53125 11.191406 C 30.664062 11.257812 30.792969 11.28125 30.941406 11.28125 C 30.984375 11.28125 31.03125 11.28125 31.074219 11.28125 C 31.28125 11.277344 31.496094 11.113281 31.570312 10.910156 C 31.757812 10.730469 31.796875 10.457031 31.65625 10.226562 C 31.65625 10.21875 31.648438 10.210938 31.644531 10.203125 Z M 31.644531 10.203125 " fill-opacity="1" fill-rule="nonzero"/></g></g></g><g clip-path="url(#983408a0a4)"><g clip-path="url(#4358650671)"><g clip-path="url(#7dc27583de)"><path fill="#fbc141" d="M 36.105469 35.859375 C 36.375 35.835938 36.652344 35.738281 36.832031 35.523438 C 36.882812 35.453125 36.9375 35.378906 36.988281 35.308594 C 37.074219 35.140625 37.117188 34.964844 37.109375 34.777344 C 37.125 34.5625 37.113281 34.347656 37.113281 34.136719 C 37.113281 33.929688 37.113281 33.722656 37.113281 33.515625 C 37.113281 33.238281 37.113281 32.960938 37.117188 32.683594 C 37.207031 32.117188 37.277344 31.546875 37.320312 30.976562 C 37.375 30.242188 37.417969 29.5 37.414062 28.765625 C 37.414062 28.5625 37.410156 28.363281 37.40625 28.164062 C 37.398438 27.957031 37.375 27.746094 37.375 27.539062 C 37.390625 27.390625 37.398438 27.242188 37.390625 27.09375 C 37.367188 26.714844 37.082031 26.410156 36.707031 26.375 C 36.324219 26.339844 36.003906 26.582031 35.898438 26.949219 C 35.878906 27.015625 35.859375 27.085938 35.839844 27.152344 C 35.792969 27.167969 35.75 27.191406 35.710938 27.21875 C 35.558594 27.324219 35.40625 27.488281 35.382812 27.679688 C 35.328125 28.128906 35.277344 28.574219 35.238281 29.023438 C 35.148438 29.796875 35.097656 30.574219 35.066406 31.347656 C 35.054688 31.71875 35.050781 32.089844 35.035156 32.460938 C 35.015625 32.839844 35.007812 33.214844 35.003906 33.59375 C 35 34.015625 35.007812 34.433594 35.027344 34.851562 C 35.035156 35.121094 35.160156 35.394531 35.359375 35.578125 C 35.546875 35.753906 35.847656 35.878906 36.105469 35.859375 Z M 36.105469 35.859375 " fill-opacity="1" fill-rule="nonzero"/></g></g></g><g clip-path="url(#0e849ea785)"><g clip-path="url(#7ac84bdb2a)"><g clip-path="url(#021f447921)"><path fill="#fbc141" d="M 25.933594 31.34375 C 25.988281 31.488281 26.074219 31.609375 26.203125 31.699219 C 26.324219 31.789062 26.480469 31.847656 26.636719 31.835938 C 26.683594 31.832031 26.726562 31.824219 26.769531 31.8125 C 26.859375 31.863281 26.949219 31.878906 27.0625 31.886719 C 27.101562 31.890625 27.144531 31.898438 27.1875 31.898438 C 27.398438 31.902344 27.578125 31.800781 27.722656 31.660156 C 27.816406 31.574219 27.898438 31.480469 27.984375 31.386719 C 28.148438 31.214844 28.3125 31.042969 28.460938 30.859375 C 28.761719 30.488281 29.0625 30.117188 29.363281 29.746094 C 29.953125 29.011719 30.546875 28.28125 31.136719 27.546875 C 31.476562 27.125 31.8125 26.707031 32.152344 26.285156 C 32.28125 26.121094 32.367188 25.941406 32.355469 25.726562 C 32.351562 25.539062 32.257812 25.316406 32.109375 25.191406 C 31.957031 25.058594 31.761719 24.96875 31.554688 24.984375 C 31.355469 25 31.148438 25.074219 31.015625 25.230469 C 30.933594 25.324219 30.855469 25.417969 30.773438 25.511719 C 30.722656 25.53125 30.675781 25.550781 30.632812 25.585938 C 30.246094 25.871094 29.882812 26.191406 29.53125 26.515625 C 29.207031 26.8125 28.890625 27.121094 28.585938 27.441406 C 27.980469 28.078125 27.414062 28.75 26.894531 29.457031 C 26.578125 29.890625 26.269531 30.335938 25.984375 30.792969 C 25.894531 30.9375 25.875 31.183594 25.933594 31.34375 Z M 25.933594 31.34375 " fill-opacity="1" fill-rule="nonzero"/></g></g></g><g clip-path="url(#b483aacc35)"><g clip-path="url(#7433c821cb)"><g clip-path="url(#a24c792611)"><path fill="#fbc141" d="M 41.070312 25.578125 C 41.046875 25.648438 41.035156 25.722656 41.042969 25.792969 C 41.046875 25.820312 41.050781 25.84375 41.054688 25.871094 C 41.054688 25.867188 41.058594 25.863281 41.058594 25.855469 C 41.058594 25.992188 41.089844 26.121094 41.160156 26.25 C 41.179688 26.28125 41.195312 26.308594 41.214844 26.339844 C 41.25 26.410156 41.292969 26.480469 41.332031 26.550781 C 41.410156 26.683594 41.496094 26.8125 41.585938 26.9375 C 41.792969 27.230469 42.050781 27.503906 42.316406 27.75 C 42.640625 28.046875 42.988281 28.308594 43.363281 28.527344 C 43.5625 28.714844 43.769531 28.890625 43.980469 29.058594 C 44.320312 29.328125 44.679688 29.582031 45.078125 29.761719 C 45.105469 29.773438 45.128906 29.785156 45.15625 29.796875 C 45.195312 29.820312 45.230469 29.847656 45.265625 29.871094 C 45.382812 29.9375 45.503906 29.972656 45.632812 29.972656 C 45.808594 29.992188 46 29.96875 46.164062 29.886719 C 46.191406 29.878906 46.21875 29.871094 46.25 29.859375 C 46.421875 29.796875 46.558594 29.714844 46.691406 29.582031 C 46.832031 29.441406 46.945312 29.238281 46.984375 29.039062 C 47.027344 28.8125 47.003906 28.53125 46.863281 28.332031 C 46.8125 28.273438 46.761719 28.214844 46.710938 28.152344 C 46.59375 28.042969 46.453125 27.96875 46.296875 27.929688 C 46.242188 27.914062 46.191406 27.898438 46.136719 27.882812 C 46.003906 27.757812 45.855469 27.648438 45.703125 27.554688 C 45.648438 27.523438 45.589844 27.492188 45.53125 27.460938 C 45.273438 27.222656 45.003906 26.996094 44.738281 26.765625 C 44.457031 26.527344 44.171875 26.289062 43.886719 26.054688 C 43.59375 25.816406 43.3125 25.566406 43.03125 25.316406 C 42.875 25.175781 42.71875 25.039062 42.5625 24.902344 C 42.449219 24.804688 42.328125 24.679688 42.199219 24.609375 C 42.066406 24.539062 41.9375 24.515625 41.789062 24.511719 C 41.746094 24.511719 41.703125 24.511719 41.660156 24.511719 C 41.453125 24.507812 41.234375 24.667969 41.15625 24.871094 C 40.964844 25.046875 40.917969 25.320312 41.054688 25.550781 C 41.058594 25.5625 41.0625 25.570312 41.070312 25.578125 Z M 41.070312 25.578125 " fill-opacity="1" fill-rule="nonzero"/></g></g></g></svg>