<?xml version="1.0" standalone="no"?>
<!DOCTYPE svg PUBLIC "-//W3C//DTD SVG 20010904//EN"
 "http://www.w3.org/TR/2001/REC-SVG-20010904/DTD/svg10.dtd">
<svg version="1.0" xmlns="http://www.w3.org/2000/svg"
 viewBox="0 0 2600.000000 2600.000000"
 preserveAspectRatio="xMidYMid meet">
<metadata>
Created by potrace 1.15, written by Peter Selinger 2001-2017
</metadata>
<g transform="translate(0.000000,2600.000000) scale(0.100000,-0.100000)"
height="24px" viewBox="0 -960 960 960" width="24px" fill="#F8ECD8" stroke="none">
<path d="M13505 20710 c-1660 -24 -3031 -108 -4233 -260 -255 -32 -295 -44
-357 -105 -62 -63 -74 -102 -90 -307 -90 -1144 10 -2755 281 -4528 408 -2678
1194 -5761 2056 -8068 101 -269 127 -329 158 -365 l38 -43 -39 -79 c-52 -106
-69 -200 -69 -383 0 -315 71 -716 215 -1217 168 -582 383 -1092 568 -1345 364
-497 1475 -756 2802 -654 782 60 1673 293 2105 551 408 243 563 487 632 993 9
66 13 222 12 505 0 353 -4 455 -27 735 -15 179 -34 406 -42 505 -8 99 -15 222
-15 274 0 123 -16 213 -46 257 l-24 35 15 207 c88 1192 283 3264 570 6067 137
1343 184 2049 245 3710 62 1686 81 2116 106 2425 37 449 0 627 -165 791 -165
164 -366 216 -923 238 -1451 59 -2626 78 -3773 61z m1950 -550 c770 -17 1883
-55 2070 -71 141 -12 271 -40 295 -65 12 -12 15 -40 13 -145 -1 -71 -4 -147
-8 -169 -7 -39 -7 -39 -63 -46 -31 -4 -257 -4 -502 0 -1018 17 -1414 1 -2830
-109 -173 -13 -351 -27 -395 -31 -204 -15 -760 -20 -1375 -12 -720 9 -1042 4
-1780 -32 -448 -21 -620 -33 -830 -55 -74 -8 -193 -19 -265 -25 -275 -20 -437
-31 -439 -28 -6 8 16 524 22 530 14 13 686 85 1192 128 831 69 1957 120 2965
133 545 7 1538 6 1930 -3z m2078 -1044 l258 1 -5 -96 c-9 -138 -23 -496 -46
-1131 -85 -2360 -119 -2893 -280 -4465 -266 -2596 -470 -4762 -554 -5888 -13
-175 -26 -320 -28 -322 -14 -15 -1134 -204 -1443 -244 -490 -64 -665 -73
-1485 -72 -818 1 -1035 11 -1350 57 -402 59 -677 179 -752 329 -11 22 -35 56
-53 75 -76 80 -492 1276 -799 2295 -931 3100 -1569 6545 -1642 8878 l-7 217
35 35 c42 42 80 50 293 60 77 3 219 15 316 25 243 27 518 46 1039 72 417 22
514 23 1537 20 1192 -3 1269 -1 1968 53 1217 95 1695 117 2330 107 226 -4 526
-7 668 -6z m-550 -12668 c54 -669 59 -762 61 -1058 1 -328 -7 -430 -50 -609
-28 -119 -57 -179 -119 -244 -52 -54 -113 -102 -121 -94 -3 2 2 51 10 108 64
439 42 1036 -65 1783 -22 153 -38 280 -36 282 4 4 262 51 287 53 13 1 18 -36
33 -221z m-5062 123 c122 -50 274 -93 440 -126 71 -14 131 -25 134 -25 3 0 3
-73 -1 -162 -10 -262 17 -751 61 -1103 46 -360 132 -745 215 -962 16 -40 25
-73 21 -73 -14 0 -158 77 -214 114 -93 62 -187 208 -305 476 -246 556 -449
1321 -478 1799 -8 132 -23 125 127 62z m4203 -78 c22 -111 77 -534 103 -793
22 -222 26 -903 5 -1045 -20 -138 -48 -261 -81 -359 -17 -50 -31 -102 -31
-117 0 -25 -6 -29 -67 -47 -107 -32 -235 -63 -240 -59 -2 3 1 24 7 47 8 31 9
65 0 129 -6 47 -22 266 -35 486 -14 220 -32 470 -40 555 -26 281 -76 955 -78
1060 l-2 104 200 32 c258 41 252 41 259 7z m-1010 -145 c3 -18 15 -166 26
-328 12 -162 34 -452 50 -645 16 -192 39 -496 50 -675 37 -600 39 -615 100
-700 12 -17 20 -30 18 -30 -2 0 -78 -11 -170 -25 -152 -23 -456 -55 -520 -55
-22 0 -28 6 -38 38 -7 20 -23 53 -36 74 -140 218 -216 839 -231 1894 l-6 451
244 7 c134 4 282 11 329 15 47 5 106 9 132 9 46 2 47 1 52 -30z m-1647 5 l351
-6 1 -398 c1 -668 33 -1166 101 -1576 29 -171 86 -409 111 -454 6 -11 8 -23 6
-26 -8 -7 -307 15 -447 33 -63 8 -137 17 -163 21 l-48 6 7 41 c14 78 6 125
-40 225 -63 137 -100 249 -145 434 -100 405 -148 835 -158 1386 l-6 334 39 -7
c21 -3 197 -9 391 -13z"/>
<path d="M14054 17666 c-97 -45 -156 -136 -157 -242 -1 -57 5 -74 71 -210 117
-242 170 -407 312 -974 131 -523 204 -766 303 -1007 107 -261 238 -479 400
-665 115 -133 281 -153 399 -48 50 44 202 270 322 479 375 652 674 1478 790
2182 28 168 31 246 13 296 -22 60 -72 117 -128 148 -46 26 -64 30 -129 30 -64
0 -83 -4 -128 -29 -56 -31 -103 -83 -123 -132 -6 -16 -22 -96 -35 -179 -83
-514 -257 -1068 -505 -1600 -81 -173 -231 -460 -253 -483 -10 -10 -23 9 -65
97 -119 251 -188 469 -336 1056 -104 411 -134 518 -193 695 -74 218 -180 447
-242 522 -70 84 -211 113 -316 64z"/>
<path d="M13210 17575 c-61 -19 -123 -74 -154 -137 -23 -46 -26 -64 -26 -152
0 -56 9 -217 20 -359 34 -454 43 -724 31 -929 -30 -499 -137 -780 -342 -897
-102 -58 -176 -51 -246 22 -244 255 -432 1042 -450 1882 -6 309 -12 333 -90
406 -54 50 -100 70 -167 72 -107 4 -211 -55 -257 -144 -31 -61 -42 -183 -35
-384 27 -750 174 -1473 385 -1893 96 -190 250 -371 386 -454 271 -164 617
-114 903 132 191 164 338 442 402 761 48 242 54 324 55 724 0 379 -2 408 -55
1068 -7 90 -13 115 -37 160 -63 112 -195 161 -323 122z"/>
<path d="M13555 12817 c-93 -36 -155 -107 -176 -203 -14 -64 2 -317 26 -423
31 -131 95 -206 204 -238 133 -38 280 37 326 167 17 49 19 129 5 179 -5 18
-14 99 -20 179 -8 107 -17 159 -32 194 -25 59 -101 130 -156 146 -49 15 -137
14 -177 -1z"/>
<path d="M15236 12566 c-204 -86 -366 -289 -366 -459 0 -148 116 -266 261
-267 111 0 193 48 253 150 24 40 46 62 86 86 72 42 117 96 137 163 65 224
-155 418 -371 327z"/>
<path d="M12223 11909 c-115 -44 -189 -180 -163 -302 26 -127 121 -253 239
-315 83 -45 202 -75 296 -76 72 -1 86 2 135 30 106 60 164 177 142 284 -25
117 -105 195 -229 224 -50 11 -72 21 -83 38 -8 13 -33 42 -56 64 -73 72 -179
92 -281 53z"/>
<path d="M13875 11656 c-88 -25 -158 -56 -227 -102 -219 -146 -350 -440 -335
-754 7 -148 35 -259 100 -390 44 -90 63 -117 136 -190 99 -98 186 -149 307
-180 151 -39 334 -20 429 44 28 19 79 46 115 62 199 86 348 212 420 354 60
119 75 191 75 355 -1 137 -3 157 -29 235 -92 279 -280 459 -571 546 -74 22
-114 27 -230 30 -100 3 -154 0 -190 -10z m255 -542 c36 -8 83 -26 106 -39 122
-71 163 -280 70 -358 -32 -27 -162 -91 -245 -121 -72 -26 -74 -26 -105 -9 -20
12 -42 40 -61 78 -28 57 -30 67 -30 180 0 111 2 124 28 177 50 102 106 123
237 92z"/>
<path d="M15760 11395 c-234 -17 -318 -46 -388 -131 -59 -72 -78 -183 -47
-275 8 -24 34 -66 57 -93 81 -95 193 -120 313 -71 40 17 80 25 120 25 75 1
193 16 248 32 58 17 148 108 166 168 44 148 -34 304 -173 345 -56 17 -69 17
-296 0z"/>
<path d="M12475 10350 c-114 -23 -209 -53 -260 -83 -48 -27 -109 -106 -130
-166 -62 -181 71 -365 262 -364 49 0 77 8 140 36 43 20 109 44 148 52 127 29
199 91 231 202 38 132 -43 283 -177 326 -63 21 -99 20 -214 -3z"/>
<path d="M15190 10075 c-63 -20 -124 -75 -155 -140 -24 -48 -27 -64 -23 -127
2 -44 11 -89 23 -113 43 -89 293 -305 394 -341 83 -30 195 -10 264 47 58 48
89 109 95 189 8 114 -33 189 -141 262 -34 23 -98 76 -142 119 -44 42 -96 84
-115 94 -46 24 -144 29 -200 10z"/>
<path d="M13762 9621 c-62 -21 -123 -76 -152 -136 -24 -51 -59 -241 -66 -370
-10 -158 15 -254 84 -323 133 -133 357 -90 438 83 20 43 24 66 24 156 0 62 9
156 21 225 22 128 19 166 -21 244 -40 79 -146 141 -239 140 -20 -1 -60 -9 -89
-19z"/>
</g>
</svg>
